<?xml version="1.0" encoding="utf-8"?>
<!-- Generator: Adobe Illustrator 19.2.1, SVG Export Plug-In . SVG Version: 6.00 Build 0)  -->
<svg version="1.1"
	 id="Layer_1" xmlns:cc="http://creativecommons.org/ns#" xmlns:dc="http://purl.org/dc/elements/1.1/" xmlns:inkscape="http://www.inkscape.org/namespaces/inkscape" xmlns:rdf="http://www.w3.org/1999/02/22-rdf-syntax-ns#" xmlns:sodipodi="http://sodipodi.sourceforge.net/DTD/sodipodi-0.dtd" xmlns:svg="http://www.w3.org/2000/svg"
	 xmlns="http://www.w3.org/2000/svg" xmlns:xlink="http://www.w3.org/1999/xlink" x="0px" y="0px" viewBox="0 0 75.7 95"
	 style="enable-background:new 0 0 75.7 95;" xml:space="preserve">
<g transform="translate(-305.01328,-442.00481)">
	<path d="M343.1,442c-16.1,0.1-32.4,9.9-38.1,29.3v0c6.3,10.9,12.5,21.9,18.8,32.9l19.1,32.8l11.7-20l0,0l7.4-12.7
		c6.5-11.5,13.2-23.1,18.8-32.9C375.5,451.7,359.4,441.9,343.1,442L343.1,442z M342.9,450.1c13.7,0,24.9,11.2,24.9,25
		s-11.2,25-24.9,25s-24.9-11.2-24.9-25S329.1,450.1,342.9,450.1z M342.9,454.8c-11.2,0-20.3,9.1-20.3,20.4
		c0,11.3,9.1,20.4,20.3,20.4c11.2,0,20.3-9.1,20.3-20.4S354.1,454.8,342.9,454.8z M333.2,464.4h3.9v3.9h3.9v-3.9h3.9v3.9h3.9v-3.9
		h3.9v3.9h-3.9v3.9h3.9v3.9h-3.9v-3.9h-3.9v3.9h-3.9v-3.9h-3.9v13.7h-3.9V464.4z M340.9,472.1h3.9v-3.9h-3.9V472.1z"/>
</g>
</svg>
