<?xml version="1.0" encoding="utf-8"?>
<!-- Generator: Adobe Illustrator 19.2.1, SVG Export Plug-In . SVG Version: 6.00 Build 0)  -->
<svg version="1.1"
	 id="Layer_1" xmlns:cc="http://creativecommons.org/ns#" xmlns:dc="http://purl.org/dc/elements/1.1/" xmlns:inkscape="http://www.inkscape.org/namespaces/inkscape" xmlns:rdf="http://www.w3.org/1999/02/22-rdf-syntax-ns#" xmlns:sodipodi="http://sodipodi.sourceforge.net/DTD/sodipodi-0.dtd" xmlns:svg="http://www.w3.org/2000/svg"
	 xmlns="http://www.w3.org/2000/svg" xmlns:xlink="http://www.w3.org/1999/xlink" x="0px" y="0px" viewBox="0 0 75.5 95"
	 style="enable-background:new 0 0 75.5 95;" xml:space="preserve">
<g transform="translate(-546.75311,-569.21093)">
	<path d="M584.7,569.2c-16,0.1-32.2,9.9-37.8,28.9l0,0.2l-0.1,0.8l0.3,0.6c5.9,10.2,11.8,20.6,17.7,30.9l0,0l19.7,33.6l12.5-21.3
		l0,0l7.2-12.3l0,0c6.2-10.8,12.4-21.7,17.7-30.9l0.4-0.7l-0.2-0.8C617,579,600.9,569.1,584.7,569.2L584.7,569.2z M584.8,573.1
		c14.4-0.1,28.5,8.3,33.3,25.4c-5.2,9-11.3,19.6-17.3,30.1l-6.8,11.6l0,0l-9.5,16.3l-16.3-27.9l0,0c-5.7-10-11.5-20.1-17.3-30.1
		C556.3,581.5,570.5,573.2,584.8,573.1L584.8,573.1z"/>
	<path d="M572.6,587.9c-2.4,0-4.1,1.7-4.2,3.6c-0.1,0.9,0.3,1.9,1.1,2.6s1.9,1,3.2,0.9c0.7,0,1.2-0.6,1.1-1.3c0-0.7-0.6-1.2-1.3-1.1
		c0,0,0,0,0,0c-0.8,0-1.3-0.2-1.5-0.3s-0.3-0.4-0.3-0.7c0-0.5,0.5-1.3,1.8-1.3h3.3c1,0,1.7,0,2.1,0c0,0.1,0,0,0,0.4
		c0,0.5-0.1,1.3-0.1,2.2l-4.8,6.6c-1.3-0.7-2.7-1.1-4.3-1.1c-5,0-9.1,4.1-9.1,9.1s4.1,9.1,9.1,9.1s9.1-4.1,9.1-9.1
		c0-2.6-1.1-5-2.9-6.6l3.5-4.9l5.8,10.3c0.8,1.4,2.3,2.3,3.9,2.3h2.8c0.6,4.5,4.4,8,9,8c5,0,9.1-4.1,9.1-9.1s-4.1-9.1-9.1-9.1
		c-0.9,0-1.7,0.2-2.5,0.4l-2.6-4.6c-0.2-0.3-0.4-0.7-0.7-0.9l1.3-2.8h2.7c0.7,0,1.2-0.5,1.2-1.2c0-0.7-0.5-1.2-1.2-1.2c0,0,0,0,0,0
		h-8.4c-0.7,0-1.2,0.5-1.2,1.2c0,0.7,0.5,1.2,1.2,1.2c0,0,0,0,0,0h3.1l-0.7,1.6c-0.4-0.1-0.7-0.1-1.1-0.1h-10.8c0-0.4,0-0.8,0-1.1
		c0-0.6,0.1-1.1-0.2-1.9c-0.2-0.4-0.5-0.7-0.9-0.8s-0.6-0.2-1-0.2c-0.6-0.1-1.3,0-2.4,0L572.6,587.9L572.6,587.9z M580.4,594.3h10.7
		c0,0,0,0,0,0l-4.9,10.4L580.4,594.3L580.4,594.3z M593.2,595.8l2.2,4c-2.3,1.4-3.9,3.7-4.3,6.5h-2.8c0,0,0,0,0,0L593.2,595.8
		L593.2,595.8z M568.9,600.8c1,0,2,0.3,2.9,0.7l-3.7,5.2c-0.4,0.5-0.3,1.3,0.2,1.7c0.5,0.4,1.3,0.3,1.7-0.2c0,0,0,0,0,0l3.8-5.2
		c1.2,1.2,1.9,2.9,1.9,4.7c0,3.7-3,6.7-6.7,6.7s-6.7-3-6.7-6.7S565.2,600.8,568.9,600.8L568.9,600.8z M600.2,600.8
		c3.7,0,6.7,3,6.7,6.7s-3,6.7-6.7,6.7c-3.3,0-6-2.4-6.5-5.6h5.6c0.8,0,1.7-0.3,2.1-1.1s0.3-1.7-0.1-2.4l-2.3-4.1
		C599.3,601,599.7,600.8,600.2,600.8L600.2,600.8z M596.6,601.9l2.4,4.3h-5.4C594.1,604.4,595.1,602.9,596.6,601.9z"/>
</g>
</svg>
