<?xml version="1.0" encoding="utf-8"?>
<!-- Generator: Adobe Illustrator 19.2.1, SVG Export Plug-In . SVG Version: 6.00 Build 0)  -->
<svg version="1.1"
	 id="Layer_1" xmlns:cc="http://creativecommons.org/ns#" xmlns:dc="http://purl.org/dc/elements/1.1/" xmlns:inkscape="http://www.inkscape.org/namespaces/inkscape" xmlns:rdf="http://www.w3.org/1999/02/22-rdf-syntax-ns#" xmlns:sodipodi="http://sodipodi.sourceforge.net/DTD/sodipodi-0.dtd" xmlns:svg="http://www.w3.org/2000/svg"
	 xmlns="http://www.w3.org/2000/svg" xmlns:xlink="http://www.w3.org/1999/xlink" x="0px" y="0px" viewBox="0 0 75.7 95"
	 style="enable-background:new 0 0 75.7 95;" xml:space="preserve">
<g transform="translate(-222.15712,-524.86196)">
	<path d="M260.3,524.9c-16.1,0.1-32.4,9.9-38.1,29.3c6.3,10.9,12.5,21.9,18.8,32.9l19.1,32.8l11.7-20l0,0l7.4-12.7
		c6.5-11.5,13.2-23.1,18.8-32.9C292.7,534.6,276.5,524.8,260.3,524.9L260.3,524.9z M252.6,540.7c0.4,0,0.7,0,1.1,0
		c0.3,0,0.6,0.1,1,0.2c0.3,0.2,0.7,0.5,0.9,0.8c0.4,0.7,0.3,1.3,0.2,1.9c0,0.3,0,0.8,0,1.1h11.1c0.4,0,0.8,0.1,1.1,0.2l0.8-1.6h-3.2
		c-0.7,0-1.2-0.5-1.3-1.2s0.5-1.2,1.2-1.3c0,0,0,0,0,0h8.7c0.7,0,1.2,0.5,1.3,1.2s-0.5,1.2-1.2,1.3c0,0,0,0,0,0h-2.8l-1.3,2.9
		c0.3,0.3,0.5,0.6,0.7,1l2.7,4.7c0.8-0.2,1.7-0.4,2.6-0.4c5.2,0,9.4,4.2,9.4,9.4c0,5.2-4.2,9.4-9.4,9.4c-4.8,0-8.7-3.6-9.3-8.3h-2.9
		c-1.7,0-3.2-0.9-4-2.3l-6-10.7l-3.6,5c1.8,1.7,3,4.1,3,6.8c0,5.2-4.2,9.4-9.4,9.4c-5.2,0-9.4-4.2-9.4-9.4c0-5.2,4.2-9.4,9.4-9.4
		c1.6,0,3.1,0.4,4.4,1.1l4.9-6.8c0-0.9,0.1-1.7,0.1-2.2c0-0.4,0-0.3,0-0.4c-0.4,0-1.1,0-2.1,0h-3.4c-1.4,0-1.9,0.8-1.9,1.4
		c0,0.3,0.1,0.5,0.3,0.7c0.2,0.2,0.7,0.4,1.5,0.4c0.7-0.1,1.3,0.5,1.3,1.1c0.1,0.7-0.5,1.3-1.1,1.3c0,0,0,0-0.1,0
		c-1.3,0.1-2.5-0.3-3.3-1c-0.8-0.7-1.2-1.7-1.1-2.7c0.1-1.9,1.9-3.7,4.4-3.7h3.4C251.7,540.7,252.2,540.7,252.6,540.7L252.6,540.7z
		 M255.8,547.3l6.1,10.8l5.1-10.8c0,0,0,0,0,0H255.8L255.8,547.3z M268.9,548.8l-5.1,10.8c0,0,0,0,0,0h2.9c0.4-2.8,2-5.2,4.4-6.7
		L268.9,548.8z M243.9,554c-3.8,0-6.9,3.1-6.9,6.9c0,3.8,3.1,6.9,6.9,6.9c3.8,0,6.9-3.1,6.9-6.9c0-1.9-0.8-3.6-2-4.8l-3.9,5.4
		c-0.4,0.6-1.2,0.7-1.7,0.3c-0.6-0.4-0.7-1.2-0.3-1.7c0,0,0,0,0,0l3.9-5.4C245.9,554.2,244.9,554,243.9,554z M276.1,554
		c-0.5,0-0.9,0.2-1.3,0.3l2.4,4.3c0.4,0.7,0.6,1.7,0.1,2.4s-1.3,1.1-2.2,1.1h-5.7c0.6,3.3,3.3,5.8,6.7,5.8c3.8,0,6.9-3.1,6.9-6.9
		S280,554,276.1,554z M272.5,555.1c-1.6,1-2.7,2.6-3,4.4h5.5L272.5,555.1z"/>
</g>
</svg>
