<?xml version="1.0" encoding="utf-8"?>
<!-- Generator: Adobe Illustrator 19.2.1, SVG Export Plug-In . SVG Version: 6.00 Build 0)  -->
<svg version="1.1"
	 id="Layer_1" xmlns:cc="http://creativecommons.org/ns#" xmlns:dc="http://purl.org/dc/elements/1.1/" xmlns:inkscape="http://www.inkscape.org/namespaces/inkscape" xmlns:rdf="http://www.w3.org/1999/02/22-rdf-syntax-ns#" xmlns:sodipodi="http://sodipodi.sourceforge.net/DTD/sodipodi-0.dtd" xmlns:svg="http://www.w3.org/2000/svg"
	 xmlns="http://www.w3.org/2000/svg" xmlns:xlink="http://www.w3.org/1999/xlink" x="0px" y="0px" viewBox="0 0 75.7 95"
	 style="enable-background:new 0 0 75.7 95;" xml:space="preserve">
<style type="text/css">
	.st0{fill:#FFFFFF;}
</style>
<g transform="translate(-482.83053,-490.87387)">
	<path d="M521,490.9c-16.1,0.1-32.4,9.9-38.1,29.3c6.3,10.9,12.5,21.9,18.8,32.9l19.1,32.8l11.7-20l0,0l7.4-12.7
		c6.5-11.5,13.2-23.1,18.8-32.9C553.3,500.6,537.2,490.8,521,490.9L521,490.9z M520.7,499c13.7,0,24.9,11.2,24.9,25
		s-11.2,25-24.9,25s-24.9-11.2-24.9-25S506.9,499,520.7,499L520.7,499z M520.7,503.6c-11.2,0-20.3,9.1-20.3,20.4s9.1,20.4,20.3,20.4
		c11.2,0,20.3-9.1,20.3-20.4S531.9,503.6,520.7,503.6L520.7,503.6z"/>
</g>
<polygon class="st0" points="28.8,21.7 28.8,42.9 50.7,32.3 "/>
</svg>
