<?xml version="1.0" encoding="utf-8"?>
<!-- Generator: Adobe Illustrator 19.2.1, SVG Export Plug-In . SVG Version: 6.00 Build 0)  -->
<svg version="1.1"
	 id="Layer_1" inkscape:version="0.44.1" sodipodi:docbase="C:\Documents and Settings\Sigurd\Mine dokumenter\Mine bilder" sodipodi:docname="Tour de France logo.svg" sodipodi:version="0.32" xmlns:cc="http://web.resource.org/cc/" xmlns:dc="http://purl.org/dc/elements/1.1/" xmlns:inkscape="http://www.inkscape.org/namespaces/inkscape" xmlns:rdf="http://www.w3.org/1999/02/22-rdf-syntax-ns#" xmlns:sodipodi="http://sodipodi.sourceforge.net/DTD/sodipodi-0.dtd" xmlns:svg="http://www.w3.org/2000/svg"
	 xmlns="http://www.w3.org/2000/svg" xmlns:xlink="http://www.w3.org/1999/xlink" x="0px" y="0px" viewBox="0 0 175.7 148.4"
	 style="enable-background:new 0 0 175.7 148.4;" xml:space="preserve">
<style type="text/css">
	.st0{fill:#FBAD28;}
</style>
<sodipodi:namedview  bordercolor="#666666" borderopacity="1.0" gridtolerance="10.0" guidetolerance="10.0" id="base" inkscape:current-layer="Layer_1" inkscape:cx="96.377998" inkscape:cy="96.377998" inkscape:pageopacity="0.0" inkscape:pageshadow="2" inkscape:window-height="576" inkscape:window-width="853" inkscape:window-x="154" inkscape:window-y="154" inkscape:zoom="1.9610285" objecttolerance="10.0" pagecolor="#ffffff">
	</sodipodi:namedview>
<g id="g1923">
	<path id="path1927" class="st0" d="M137.2,82.5c3.2,2,6.9,3.5,11.3,3.8c4.3,0.3,8.7,0,12.7-1.2c4.1-1.4,7.5-3.8,10.1-6.4
		c2.6-2.9,4.1-6.4,4.3-10.4c0.3-3.5,0-7.2-1.4-11c-1.2-3.8-2.9-6.9-5.5-9.8c-2.6-2.6-5.2-4.3-8.1-5.2c-4.9-1.4-9.8-1.2-15,0.3
		c-4.6,1.4-8.1,3.5-10.7,6.1c-2.6,3.5-4.6,6.9-5.5,10.4c-0.9,3.8-0.6,8.4,0.9,13.3C131.4,76.7,133.7,79.9,137.2,82.5L137.2,82.5z"/>
	<path id="path1929" d="M106.5,103.3c0.6,2.3,1.2,4.6,1.7,6.9c1.1,4.8,2.1,9.6,3.2,14.5c-0.2,0.1-0.4,0.2-0.6,0.3
		c-1.5-2.1-3.1-4.2-4.6-6.4c-1.1-2.8-2.1-5.6-3.2-8.4c-0.9,3.8-2,8.7-4.1,14.2c-0.2,0.3-0.4,0.6-0.6,0.9c-0.2,0.3-0.4,0.6-0.6,0.9
		c-1.7-0.3-3.5-1.1-5.2-2.9c0.1,0,0.2,0,0.3,0c-0.2-7.4-0.4-14.9-0.6-22.3c1.1,2.8,2.1,5.6,3.2,8.4c0.9-3.2,1.4-5.5,2.3-7.2
		c0.9-2.3,2-3.5,3.8-3.5c1.2,0,2,0.3,2.9,1.2C105.3,100.7,105.9,101.9,106.5,103.3L106.5,103.3z M130.2,91.7c-1,1.4-1.9,2.9-2.9,4.3
		c-1.1,2.1-2.1,4.2-3.2,6.4c-0.6,1.4-0.9,2.9-1.2,4.9c-0.3,2.3,0,3.8,0.3,4.6c0.6,0.9,1.4,1.7,2.6,2c1.6,0.4,3.3,0.8,4.9,1.2
		c1.5,0.3,3.1,0.6,4.6,0.9c0.1,0.2,0.2,0.4,0.3,0.6c-2.1,0.8-4.2,1.5-6.4,2.3c-2.6,0.6-4.6,0.6-6.7,0c-2.3-0.9-4.1-2-5.5-4.1
		c-2-2.9-2.3-6.1-1.2-9.3c2-6.1,5.5-10.7,10.4-13.6c0.9-0.6,1.4-0.9,2-0.9C128.8,91.2,129.3,91.4,130.2,91.7L130.2,91.7z M149,87.4
		c-2,1.7-3.8,4.6-4.6,8.4c-0.1,0.4-0.2,0.8-0.3,1.2c0.2,0.4,0.4,0.8,0.6,1.2c0.1-0.1,0.2-0.2,0.3-0.3c1.7-2,2.9-3.8,3.8-5.5
		c0.9-2,1.4-3.8,1.7-5.8C150.2,86.7,149.4,87.1,149,87.4L149,87.4z M154.2,90.3c-1.2,2.6-2.9,4.9-4.9,7.2c-0.7,0.6-1.4,1.2-2,1.7
		c-1.2,0.9-2,1.2-2.9,0.9c-0.2-0.2-0.4-0.4-0.6-0.6c-0.1,1.2-0.2,2.3-0.3,3.5c0,3.2,0.6,5.5,1.7,6.9c0.6,0.9,1.2,1.2,2,1.2
		c1.4,0.3,3.2,0,5.2-0.9c3.1-1.9,6.2-3.9,9.3-5.8c1.9-1.4,3.9-2.7,5.8-4.1c0.2,0.1,0.4,0.2,0.6,0.3c-4.6,5.8-8.4,10.1-11.6,12.7
		c-1.4,0.8-2.7,1.5-4.1,2.3c-2.9,1.2-5.2,1.4-7.2,1.2c-2.6-0.6-4.3-1.7-5.8-3.8c-1.2-2-2-3.8-2.3-5.5c-0.9-3.2-0.9-6.4-0.6-9.3
		c0.3-2.9,1.2-5.8,2.9-9c1.4-2.3,2.9-4.3,4.9-5.8c2-1.7,4.3-2.6,6.7-2.9c1.2,0,2,0.3,2.9,0.6c0.9,0.9,1.2,1.7,1.4,2.6
		C155.7,85.9,155.4,88,154.2,90.3L154.2,90.3z M43.1,116.9c-1,7.9-1.9,15.8-2.9,23.7c-1.4-3.8-2.3-6.7-2.6-8.4
		c-0.9-8.4-1.2-14.8-0.3-19.4c0.6-3.5,2-5.5,4.6-6.4c2.6-0.9,4.9,0,6.9,2.6c3.5,3.5,4.9,7.2,4.3,11.3c-0.3,3.2-1.7,6.4-4,9.8
		c0.2,0.2,0.4,0.4,0.6,0.6c3.7,2.7,7.3,5.4,11,8.1c-0.1,0.2-0.2,0.4-0.3,0.6c-2.7-0.9-5.4-1.7-8.1-2.6c-2.9-0.9-5.2-2.3-7.2-4.1
		c-0.3-0.3-0.9-0.6-1.2-1.4c-0.3-0.9-0.3-2,0-3.2c0.6-1.2,1.2-2.3,1.7-3.5c1.4-4.3,0.9-7.8-2-10.4L43.1,116.9L43.1,116.9z
		 M79.3,108.2c-0.3-0.6-0.6-1.2-0.9-1.7c-3.2,5.5-5.5,12.2-6.9,20c2.3-0.9,4.1-2.6,4.9-5.2c0.2-1.4,0.4-2.7,0.6-4.1
		c0-1.3,0-2.5,0-3.8c0.4-0.5,0.8-1,1.2-1.4c0.5-0.2,1-0.4,1.4-0.6c0.9,0.3,1.7,0.6,2,1.4c1.7,3.9,3.5,7.7,5.2,11.6
		c-0.1,0.1-0.2,0.2-0.3,0.3c-1.4-1.6-2.9-3.3-4.3-4.9c0,0.3,0,0.6,0,0.9c-0.3,3.2-1.4,5.8-3.5,8.4c-2,2.6-4.3,4.3-7.2,5.8
		c-2.6,0.7-5.2,0.6-7.8-0.3c-1.2-1.4-1.2-3.8,0-6.9c2-5.2,4.3-10.1,6.9-14.5c1.2-2.3,2.9-4.9,5.5-8.1c0.9-1.2,2-1.4,2.9-1.2
		c0.6,0.3,0.9,0.6,1.2,1.4c-0.1,0.5-0.2,1-0.3,1.4L79.3,108.2L79.3,108.2z M83.3,18.2c-0.6,2.6-0.6,4.6,0.3,6.1
		c0.3,0.9,0.6,1.2,1.2,1.4c1.2,0.3,2.6,0,4.1-0.9c1.4-0.9,3.5-2,5.5-4.1c0.1,0,0.2,0,0.3,0c-1.7,4.9-4.6,7.5-9,8.1
		c-2.6,0.3-4.3-0.9-5.8-3.8c-1.4-3.2-1.4-6.4-0.3-10.1c1.4-4.3,4.1-6.9,7.8-7.8c1.2-0.3,2.2-0.1,2.9,0.6c1.2,0.9,1.4,2.3,0.9,4.3
		c-0.6,2.3-1.7,4.3-3.5,5.8c-0.9,0.9-2,1.4-2.9,1.4c-0.6,0-0.9-0.3-1.2-0.6C83.5,18.6,83.4,18.4,83.3,18.2L83.3,18.2z M88.3,10.7
		c-0.3-0.2-0.9,0-1.4,0.6c-1.2,1.2-2,2.9-2.9,5.5c0,0.1,0,0.2,0,0.3c0.1,0.4,0.2,0.8,0.3,1.2c0.1-0.1,0.2-0.2,0.3-0.3
		c1.2-0.6,2-1.7,2.9-3.2C88,13.6,88.3,12.2,88.3,10.7L88.3,10.7z M66.8,0c1.4,2.6,2.6,4.9,2.9,6.9c0.9,4.3,1.2,9,1.2,13.6
		c0,2.2,0,4.4,0,6.7c0.1,0.9,0.2,1.7,0.3,2.6c0.1,0.3,0.2,0.6,0.3,0.9c0.1,0,0.2,0,0.3,0c2.4-0.9,4.8-1.7,7.2-2.6
		c0.1,0.2,0.2,0.4,0.3,0.6c-1.3,1.2-2.5,2.3-3.8,3.5c-1.4,1.4-3.2,2-4.6,2.3c-0.5-0.1-1-0.2-1.4-0.3c-1.2-0.9-2-2.3-2.9-4.3
		c-0.3-1.8-0.6-3.7-0.9-5.5c0.1-3.8,0.2-7.5,0.3-11.3c0.2-3.2,0.4-6.4,0.6-9.5C66.7,2.3,66.7,1.2,66.8,0L66.8,0z M22.6,73.2
		c-0.1,0.1-0.8,0.7-0.9,0.9c-0.6,0.6-0.9,1.3-1.1,2.3c0.1,0.1,0.2,0.2,0.3,0.3c0.9-0.3,1.4-0.6,1.7-1.2
		C22.9,74.7,22.9,74.1,22.6,73.2L22.6,73.2z M20.5,77.3c-0.3,1.4,0,2,0.9,2.3c0.6-0.2,1.2-0.4,1.7-0.6c0.7-0.4,1.4-0.8,2-1.2
		c0.1,0.1,0.2,0.2,0.3,0.3c-0.3,0.4-0.6,0.8-0.9,1.2c-1.2,1.4-2.3,2-3.5,1.7s-2-1.2-2.3-2.6c-0.3-1.2-0.3-2.3,0-3.5
		c0.3-1.4,1.2-2.3,2-2.9c1.4-0.9,2.3-0.9,3.2,0c0.6,0.9,0.5,2,0,3.2c-0.6,1.4-1.7,2.4-3.2,2.1C20.7,77.3,20.6,77.3,20.5,77.3
		L20.5,77.3z M11.9,75.5c-0.9,0.3-1.4,1.2-1.7,2.6c-0.2,1.2-0.4,2.3-0.6,3.5c0,0.2,0,0.4,0,0.6c0.1,0.1,0.2,0.2,0.3,0.3
		c0.1,0,0.2,0,0.3,0c0.6-0.2,1-1,1.4-1.7c0.7-1.4,1.3-2.9,1.4-4.3c0-0.2,0-0.4,0-0.6C12.6,75.7,12.3,75.6,11.9,75.5L11.9,75.5z
		 M13.3,68.9c0-0.9,0.3-1.2,0.9-1.2S15,68,15,68.6c0.3,1.7,0.6,3.5,0.6,4.9c-0.1,1-0.2,1.9-0.3,2.9c0.1,0.6,0.2,1.2,0.3,1.7
		c0.3,1.2,0.6,2.3,0.9,3.5c-0.1,0-0.2,0-0.3,0c-0.4-1-0.8-1.9-1.2-2.9c-0.2,0.5-0.4,1-0.6,1.4c-0.6,1.2-1.4,2.2-2.3,3.2
		c-1.2,1.4-2.3,1.4-3.5,0.6c-0.3-0.3-0.6-0.6-0.9-1.4C7.5,81,8.1,79.3,9,77.5c0.9-2.3,2-3.2,3.5-2.6c0.2,0.1,0.4,0.2,0.6,0.3
		c0.1-0.6,0.2-1.2,0.3-1.7C13.3,72,13.3,70.4,13.3,68.9L13.3,68.9z M35.9,84.2c-4.3,2-7.5,4.1-10.1,6.4c-3.5,3.2-5.5,7.2-6.1,12.4
		c-0.1,0.9-0.2,1.7-0.3,2.6c2.4-0.3,4.8-0.6,7.2-0.9c2.6-0.1,5.2-0.2,7.8-0.3c0,0.4,0,0.8,0,1.2c-2.5,1.6-5,3.3-7.5,4.9
		c-2.9,2-5.5,3.2-7.8,4.1c0.1,0.8,0.2,1.5,0.3,2.3c0.3,4.9,1.7,12.2,3.8,21.1c0.9,3.4,1.7,6.8,2.6,10.1c-0.2,0.1-0.4,0.2-0.6,0.3
		c-4.9-6.1-8.7-13-11.3-21.1c-1.2-3.2-2-6.4-2.6-9.5c-0.1-0.5-0.2-1-0.3-1.4c-3.7,0.1-7.3,0.2-11,0.3c0-0.1,0-0.2,0-0.4
		c1.7-1.1,3.5-2.3,5.2-3.4c1.9-1.3,3.9-2.5,5.8-3.8c0-2.6,0.3-5.2,1.2-7.8c2-6.9,5.5-11.9,10.7-14.8C27.5,83.9,31.8,83,35.9,84.2
		L35.9,84.2z"/>
</g>
<g>
	<path d="M44.1,53l0.1-0.7l-1.6,0.5l-0.5,0.3L40.1,54l-2.3,0.6l-2.4,0.5l-3.5,1l-3.6-0.2L27.8,56l-1.9,0.2l-1.1-0.9l-0.2-0.5
		l0.6-0.9l0-0.3l1.1-0.8l1,0.1l0.8-0.7l0.2-0.9l2.8-1.5l1.3-0.6l0.6-0.6l0.8-0.7l0.2-0.1l0.7-0.4l1.2,0.3l1.3-0.8l1.8-0.4l2.5-0.9
		l4-1.7l4.5-1.6l4.5-1.1l3.1-1.4l4.3-0.8l3.7-1l5.2-0.3l2.5,0.8L72.6,39l-1.3,0.7l0,0.3l-0.9,0.6l-1,0.5l-0.1,0.8l-1.2,0.3L67.7,43
		l-2,0.4l-0.2,0.4l0.1,0.5l-0.2,0.1l-0.5-0.2l-0.6,0.2l-0.3,0.1l-0.1,0.1l0,0.4l-1.1-0.4l-1,0.9l-0.2,0.5l-1.9,0.8l-0.9,0.4
		l-3.4,1.3l-0.9,0.7l-0.2,0.2l-0.1,1.5l-0.2,4.2l-0.2,7.1l0.1,5.5l0.1,4.3l0.2,3.2L54,77.1l0.4,1.8l-0.2,1.7l0.1,0.9l0.1,0.9
		l-0.1,0.8l0.2,1.3l0,1.2l0.1,1.4l0,1.9l0.4,1.9l0.2,1.3l0.3,1.5l0.2,0.5l0.1,1.4l-0.2,0.9l0.4,2.5l0.1,2l-0.3,0.3l0.2,0.5l-0.2,0.2
		l-1-0.4L52.6,97l0-0.7l-0.6-0.7l-1-2.3l-0.2-0.7l-0.2-0.9l-0.4-1.4l-0.4-0.5l-1.5-5l-0.4-1.5L47.7,83l-0.1-1.4l-0.3-0.4l-0.6-2.9
		l0-0.4l-0.8-3.7l-0.1-2.3l-0.4-3.3l0-0.4l0-0.9L45,65.4l0-1.4l-0.1-2.2l-0.2-1.8l-0.1-2.4l0-0.4l-0.2-3.1L44.1,53z"/>
	<path d="M77.5,62l1-0.9l0.8,0l0.3-0.4l0.3-0.1l1.3,0.6l0.6,0.1l1.5,1.6l0.5,1.2l0.4,1.4l-0.5,2.8l0,6.6l0.8,4l0.3,1.4l0.8,0
		l2.4-0.8l2.8-1.7L90.7,79l0.1,0.4L90.5,81l-0.4,0.7l0.3,0.4l-0.7,0.9L89.3,83l-0.1,0.6l-1,0.7l-0.2,0.4l-2,2.2l-0.7,1l-1.6,0.8
		l-0.2,0.2l-0.5-0.1l-1.8-0.2l-2.4-0.8l-1.6-1.1l-0.9-1.2L75,82.6L73.9,79l-0.1-2.3l0.4-4.4l1.2-4.8l1.2-3.4L77.5,62z M77.1,47.6
		l0.5-0.3l1.1,0.3l1,0l0.6,1.1l0.3,0L80.4,49l0.5,1.6l0.1,1.8l-1.2,1.4l-1.4,0.7l-1.2,0.1L74.9,53l-0.4-1l-0.3-1l-0.1-1.2l0.6-0.3
		L74.6,49l0.5-0.7l0.4-0.1l0.2-0.4L77.1,47.6z"/>
	<path d="M106.5,45.9l1.7-1.1l1-0.3l2.4,0.2l0.3,0l1.3,0.6l2.5,2.1l0.6,1.7l0.2,2.7l0,0.8l-0.3,2.1l-0.2,1.2l-0.1,1l-0.3,1.5
		l0.2,1.2l-0.2,1.9l0.4,0.4l-0.4,1.2l0.3,0.4l-0.2,0.2l0.1,0.4l0.3-0.1l4.3-12.1l2.1-4.5l1.1-1.8l1.6-2.2l0.6-0.8l1-0.4l0.1-0.5
		l1.4-0.8l1.7-0.5l0.7,0.2l0.9-0.3l0.4,0.3l0.6,0l1.2,0.5l2.8,2.7l0.4,1.6l0.2,0.4l0.2,2.1l-0.3,1.4l-0.2,1.1l-0.1,1.6l-0.1,1.2
		l-0.4,0.8l-0.1,0.7l-0.4,0.9l-1.1,1.7l-0.5,1.8l0.2,0.3l-0.4,0.6l-0.3,2.1l-0.5,2.6l-0.2,1.3l-0.4,1.9l0.2,1.2l0.1,2.2l-0.4,1
		l0.4,0.8l-0.1,1.6l0.4,1.2l0.1,0.7l-0.4,0.3l0.7,1.9l-0.3,0.8l0.2,1.1l-0.4,0.1l0,0.1l-0.3,0.1l-0.3,0.3l-0.4-0.2l-0.7-1.2
		l-0.4-0.6l-0.7-1.7l0-0.6l-0.4-0.2l-0.5-0.8l-0.2-2.1l-0.5-1.3l-0.3-1l-0.2-1l0.2-0.5l-0.4-1.4l0.1-0.2l-0.2-3.1l-0.2-4l0.2-3.8
		l-0.1-0.3l-0.1-0.4l0.3-0.5l-0.1-1.2l0.1-2.1l0.3-0.3l-0.1-0.4l0.2-1.6l0.4-0.3l-0.2-0.6l-0.5,0.3l-0.6,1.4l-0.1,1.7l-0.4,0.6
		l0,0.4l-0.6,0.6l0.2,0.5l-0.5,1.6l-0.4,1.3l-0.2,1.8l0.1,1.9l-0.7,1.8l-0.4,1.4l-0.2,0.6l0,1.3l-1.7,2.9l-1.4,1.9l-1,0.6l-0.6,0.5
		l-0.5,0.4l-1,0.1l-0.9-0.1l-2.3-0.9l-2.5-2l-0.5-0.6l0-0.4L111,69l-1-4.3L109,61l-0.1-1.5l-0.1-0.3l-0.2-1l-0.3-1.8l-1.2,4.4
		l-0.2,0.3l-0.7,4l-0.7,3.5l-0.2,1.4l0.1,0.7l-0.1,1.6l-0.1,0.5l0.2,0.5l-0.2,0.8l-0.1,1.2l-0.2,0.5l-0.2,1.7l0.2,1.1l-0.2,0.3
		l-0.2,1.1l-0.7,0.5l0.1,0.4l-0.6,0.2l-0.2-0.1l-1.6,0.5l-1-0.7l-0.4-0.2l-0.6-0.1l-0.9-0.6l-0.4-0.3l-0.6,0l-0.4-0.8l-0.1-0.3
		l0.4-0.2l-0.4-1.2l0.2-1.2l-0.4-3.5l0-0.4l0-4.3l0-1l0.4-4.6l1.5-8.4l0.4-1.7l0.5-1.1l0.5-0.8l0.9-0.3l1-0.5l0.3,0.1l1,0.3l0.4-0.3
		l1.7-2.4L106.5,45.9z"/>
</g>
</svg>
