<?xml version="1.0" encoding="utf-8"?>
<!-- Generator: Adobe Illustrator 15.0.0, SVG Export Plug-In . SVG Version: 6.00 Build 0)  -->
<!DOCTYPE svg [
	<!ENTITY ns_extend "http://ns.adobe.com/Extensibility/1.0/">
	<!ENTITY ns_ai "http://ns.adobe.com/AdobeIllustrator/10.0/">
	<!ENTITY ns_graphs "http://ns.adobe.com/Graphs/1.0/">
	<!ENTITY ns_vars "http://ns.adobe.com/Variables/1.0/">
	<!ENTITY ns_imrep "http://ns.adobe.com/ImageReplacement/1.0/">
	<!ENTITY ns_sfw "http://ns.adobe.com/SaveForWeb/1.0/">
	<!ENTITY ns_custom "http://ns.adobe.com/GenericCustomNamespace/1.0/">
	<!ENTITY ns_adobe_xpath "http://ns.adobe.com/XPath/1.0/">
]>
<svg version="1.2" baseProfile="tiny"
	 id="Layer_1" xmlns:x="&ns_extend;" xmlns:i="&ns_ai;" xmlns:graph="&ns_graphs;" xmlns:dc="http://purl.org/dc/elements/1.1/" xmlns:cc="http://web.resource.org/cc/" xmlns:rdf="http://www.w3.org/1999/02/22-rdf-syntax-ns#" xmlns:svg="http://www.w3.org/2000/svg" xmlns:sodipodi="http://sodipodi.sourceforge.net/DTD/sodipodi-0.dtd" xmlns:inkscape="http://www.inkscape.org/namespaces/inkscape" sodipodi:version="0.32" inkscape:version="0.44.1" sodipodi:docbase="C:\Documents and Settings\Sigurd\Mine dokumenter\Mine bilder" sodipodi:docname="Tour de France logo.svg"
	 xmlns="http://www.w3.org/2000/svg" xmlns:xlink="http://www.w3.org/1999/xlink" x="0px" y="0px" width="175.749px"
	 height="148.445px" viewBox="8.503 22.155 175.749 148.445" xml:space="preserve">
<metadata  id="metadata1934">
	<rdf:RDF>
		<cc:Work  rdf:about="">
			<dc:format>image/svg+xml</dc:format>
			<dc:type  rdf:resource="http://purl.org/dc/dcmitype/StillImage"></dc:type>
		</cc:Work>
	</rdf:RDF>
	<sfw  xmlns="&ns_sfw;">
		<slices></slices>
		<sliceSourceBounds  height="148.445" width="175.749" x="507.625" y="346.277" bottomLeftOrigin="true"></sliceSourceBounds>
	</sfw>
</metadata>
<sodipodi:namedview  id="base" bordercolor="#666666" borderopacity="1.0" objecttolerance="10.0" inkscape:cy="96.377998" gridtolerance="10.0" guidetolerance="10.0" inkscape:cx="96.377998" inkscape:zoom="1.9610285" pagecolor="#ffffff" inkscape:current-layer="Layer_1" inkscape:window-y="154" inkscape:window-x="154" inkscape:window-width="853" inkscape:pageshadow="2" inkscape:pageopacity="0.0" inkscape:window-height="576">
	</sodipodi:namedview>
<g id="g1923">
	<path id="path1927" fill="#FBAD28" d="M145.665,104.625c3.184,2.024,6.945,3.474,11.286,3.763c4.34,0.288,8.681,0,12.731-1.158
		c4.051-1.445,7.522-3.763,10.127-6.365c2.604-2.895,4.053-6.367,4.342-10.418c0.289-3.473,0-7.234-1.446-10.996
		c-1.158-3.762-2.896-6.945-5.499-9.839c-2.604-2.604-5.208-4.341-8.102-5.208c-4.92-1.447-9.84-1.158-15.049,0.29
		c-4.63,1.447-8.103,3.473-10.707,6.077c-2.604,3.472-4.629,6.944-5.496,10.417c-0.869,3.761-0.58,8.391,0.867,13.311
		C139.878,98.838,142.192,102.021,145.665,104.625L145.665,104.625z"/>
	<path id="path1929" d="M87.213,74.53c-2.025,0.482-4.051,0.964-6.077,1.447c-2.315,0.868-4.051,1.736-5.498,2.604
		c-2.604,2.025-4.63,4.34-6.077,7.234c-1.446,2.893-2.025,6.076-2.025,9.26c0,3.183,0.868,6.076,2.315,8.682
		c1.446,2.893,3.762,4.918,6.655,6.365c3.184,1.736,6.656,2.314,10.128,1.736c3.761-0.289,6.945-1.736,9.549-4.342
		c2.893-2.604,4.628-6.365,4.919-10.707c0.289-4.341-0.869-8.103-3.474-11.286c-1.736-2.315-3.762-3.762-5.788-4.34
		c-2.025-0.579-4.051-0.579-6.656,0c-2.025,0.289-4.051,1.157-5.787,2.604c-0.823,0.771-1.498,1.542-2.026,2.314
		c-0.192-0.097-0.385-0.193-0.578-0.289c0.289-2.604,1.736-4.92,4.34-6.656c2.314-1.446,5.209-2.314,8.392-2.604
		c3.762-0.29,6.945,0.868,10.127,3.183c2.604,2.315,4.92,5.208,6.367,8.681c1.446,3.762,2.025,7.524,1.735,11.285
		c-0.289,4.053-1.735,7.523-3.762,10.707c-2.604,3.762-6.076,6.656-10.417,8.682c-6.077,2.604-12.443,2.314-18.81-0.869
		c-6.655-3.182-10.707-7.813-12.731-14.467c-1.447-5.499-1.158-10.708,0.868-16.206c2.314-5.498,5.787-9.549,10.707-12.153
		c2.604-1.447,5.208-2.025,7.813-2.025C82.583,73.373,84.608,73.662,87.213,74.53L87.213,74.53z M104.575,57.168
		c0.867,3.28,1.736,6.56,2.604,9.838c0.868,3.763,2.025,6.656,3.473,9.26c0.097-0.193,0.193-0.386,0.289-0.579
		c0.674-5.498,1.351-10.996,2.025-16.494c0.192,0,0.385,0,0.578,0c2.025,6.077,3.184,10.997,3.473,14.18
		c0.289,4.629-0.867,7.813-3.473,9.838c-1.156,0.868-2.604,1.157-4.051,0.579c-1.446-0.29-2.895-1.158-3.762-2.604
		c-1.447-2.895-2.315-5.788-2.604-8.971C102.839,69.033,103.417,63.824,104.575,57.168L104.575,57.168z M83.161,97.392
		c1.254,0.938,2.343,1.354,3.423,1.01c0.669-0.895,2.015-3.539,0.049-4.193c-0.868-0.579-1.736-0.579-2.604,0
		C83.161,95.076,82.872,95.944,83.161,97.392L83.161,97.392z M114.992,125.459c0.577,2.313,1.157,4.631,1.735,6.944
		c1.062,4.822,2.123,9.646,3.184,14.47c-0.191,0.096-0.387,0.19-0.578,0.289c-1.544-2.123-3.087-4.244-4.631-6.365
		c-1.061-2.799-2.121-5.596-3.184-8.394c-0.867,3.763-2.024,8.683-4.051,14.181c-0.193,0.289-0.387,0.578-0.578,0.867
		c-0.193,0.289-0.387,0.577-0.578,0.868c-1.736-0.284-3.475-1.057-5.209-2.895c0.096,0,0.191,0,0.289,0
		c-0.193-7.428-0.387-14.854-0.58-22.281c1.063,2.797,2.123,5.594,3.185,8.394c0.868-3.185,1.446-5.5,2.315-7.234
		c0.867-2.315,2.024-3.473,3.76-3.473c1.158,0,2.025,0.289,2.896,1.155C113.834,122.854,114.413,124.013,114.992,125.459
		L114.992,125.459z M138.722,113.885c-0.966,1.445-1.93,2.894-2.895,4.341c-1.063,2.123-2.122,4.243-3.184,6.366
		c-0.58,1.445-0.869,2.894-1.158,4.918c-0.289,2.316,0,3.765,0.289,4.632c0.58,0.868,1.447,1.735,2.604,2.024
		c1.64,0.385,3.279,0.771,4.92,1.158c1.542,0.289,3.087,0.577,4.63,0.866c0.096,0.193,0.192,0.386,0.289,0.58
		c-2.123,0.771-4.244,1.543-6.365,2.314c-2.604,0.578-4.631,0.578-6.656,0c-2.314-0.869-4.051-2.025-5.497-4.051
		c-2.025-2.895-2.315-6.078-1.157-9.262c2.025-6.076,5.497-10.705,10.417-13.601c0.868-0.578,1.446-0.866,2.024-0.866
		C137.272,113.308,137.853,113.597,138.722,113.885L138.722,113.885z M157.528,109.543c-2.029,1.729-3.762,4.631-4.629,8.394
		c-0.098,0.387-0.193,0.771-0.289,1.157c0.191,0.386,0.385,0.771,0.578,1.156c0.097-0.097,0.192-0.192,0.289-0.289
		c1.736-2.024,2.895-3.762,3.762-5.498c0.867-2.024,1.447-3.762,1.736-5.787C158.75,108.901,157.901,109.228,157.528,109.543
		L157.528,109.543z M162.737,112.438c-1.157,2.604-2.895,4.92-4.92,7.233c-0.674,0.578-1.351,1.158-2.024,1.736
		c-1.157,0.868-2.024,1.157-2.894,0.868c-0.193-0.194-0.387-0.387-0.578-0.579c-0.098,1.157-0.193,2.313-0.291,3.473
		c0,3.185,0.58,5.498,1.736,6.945c0.58,0.866,1.158,1.157,2.025,1.157c1.447,0.289,3.184,0,5.209-0.869
		c3.086-1.93,6.173-3.856,9.26-5.786c1.93-1.353,3.857-2.701,5.787-4.052c0.193,0.097,0.387,0.191,0.579,0.289
		c-4.63,5.787-8.392,10.127-11.575,12.732c-1.351,0.771-2.699,1.543-4.051,2.314c-2.895,1.158-5.209,1.447-7.234,1.158
		c-2.604-0.58-4.34-1.736-5.787-3.763c-1.158-2.024-2.025-3.762-2.314-5.498c-0.868-3.184-0.868-6.366-0.579-9.26
		c0.29-2.896,1.158-5.789,2.896-8.972c1.445-2.315,2.894-4.342,4.918-5.786c2.027-1.736,4.342-2.605,6.656-2.896
		c1.156,0,2.024,0.289,2.894,0.578c0.868,0.869,1.157,1.736,1.446,2.605C164.185,108.099,163.896,110.123,162.737,112.438
		L162.737,112.438z M51.62,139.062c-0.964,7.907-1.929,15.817-2.894,23.729c-1.446-3.764-2.314-6.656-2.604-8.393
		c-0.868-8.394-1.157-14.758-0.289-19.388c0.579-3.473,2.025-5.5,4.63-6.366c2.604-0.869,4.919,0,6.945,2.604
		c3.472,3.473,4.919,7.234,4.34,11.285c-0.289,3.184-1.736,6.367-4.05,9.84c0.192,0.193,0.385,0.385,0.578,0.578
		c3.666,2.701,7.331,5.402,10.996,8.104c-0.097,0.191-0.193,0.385-0.289,0.578c-2.701-0.869-5.401-1.736-8.103-2.605
		c-2.893-0.866-5.208-2.313-7.234-4.051c-0.289-0.289-0.868-0.578-1.157-1.446c-0.29-0.867-0.29-2.025,0-3.183
		c0.579-1.158,1.158-2.315,1.736-3.473c1.446-4.342,0.868-7.813-2.026-10.418L51.62,139.062L51.62,139.062z M87.791,130.379
		c-0.29-0.58-0.578-1.157-0.868-1.735c-3.183,5.498-5.498,12.153-6.945,19.967c2.315-0.869,4.051-2.605,4.919-5.209
		c0.193-1.353,0.386-2.701,0.579-4.051c0-1.254,0-2.511,0-3.763c0.386-0.483,0.771-0.965,1.157-1.446
		c0.482-0.193,0.964-0.388,1.447-0.578c0.869,0.289,1.736,0.578,2.025,1.446c1.736,3.857,3.473,7.716,5.209,11.574
		c-0.096,0.097-0.193,0.19-0.289,0.289c-1.447-1.642-2.895-3.279-4.341-4.92c0,0.289,0,0.578,0,0.869
		c-0.29,3.182-1.447,5.786-3.472,8.391c-2.026,2.604-4.341,4.341-7.235,5.787c-2.604,0.681-5.209,0.584-7.813-0.289
		c-1.157-1.446-1.157-3.762,0-6.942c2.026-5.209,4.34-10.129,6.945-14.47c1.158-2.315,2.894-4.92,5.499-8.104
		c0.868-1.158,2.025-1.447,2.894-1.158c0.579,0.291,0.868,0.58,1.157,1.446c-0.097,0.482-0.193,0.966-0.289,1.447L87.791,130.379
		L87.791,130.379z M158.397,47.908c0,2.026,0.867,3.184,2.313,4.052c1.447,0.579,2.896,0.579,3.763-0.289
		c2.314-2.026,2.314-4.052,0.289-6.367C163.043,43.583,157.776,45.427,158.397,47.908L158.397,47.908z M149.717,45.015
		c3.763,1.736,5.498,3.762,5.787,5.788c0,1.736-1.157,3.472-3.183,5.498c-2.123,1.543-4.245,3.087-6.367,4.63
		c-0.771,0.675-1.543,1.351-2.314,2.026c4.244,3.473,8.488,6.945,12.732,10.417c-0.098,0.29-0.193,0.579-0.29,0.868
		c-3.954-1.833-7.909-3.665-11.862-5.498c-3.185-1.446-5.209-2.894-6.078-4.34c-0.578-1.447-0.578-2.604,0.291-3.473
		c2.604-2.701,5.207-5.401,7.813-8.102c0.289-0.289,0.578-0.579,0.867-0.868c-0.578-0.096-1.157-0.193-1.735-0.289
		c-1.735-0.096-3.472-0.193-5.208-0.29c-2.509,0.483-5.018,0.965-7.523,1.447c-0.869,0.29-1.736,0.579-2.604,0.868
		c-0.192,0.193-0.386,0.386-0.579,0.579c-0.191,2.991-0.385,5.981-0.578,8.97c-1.158,14.469-2.895,27.491-5.498,39.354
		c-0.676,1.254-1.351,2.508-2.025,3.762c0-7.233,0-14.468,0-21.702c0-7.234,0-14.468,0-21.703c-0.096-3.182-0.191-6.366-0.289-9.549
		c0-1.447,0.578-2.895,1.447-4.341c0.867-1.447,2.314-2.315,3.762-2.894c2.605-1.446,5.498-2.314,8.682-2.604
		c3.279,0.097,6.559,0.193,9.838,0.29C146.533,44.146,148.271,44.436,149.717,45.015L149.717,45.015z M91.842,40.385
		c-0.579,2.604-0.579,4.63,0.289,6.077c0.29,0.868,0.579,1.157,1.158,1.446c1.158,0.29,2.604,0,4.051-0.868
		c1.446-0.868,3.472-2.025,5.498-4.051c0.097,0,0.192,0,0.289,0c-1.735,4.918-4.63,7.523-8.97,8.102
		c-2.604,0.289-4.341-0.868-5.788-3.762c-1.447-3.183-1.447-6.367-0.29-10.128c1.447-4.341,4.051-6.945,7.813-7.813
		c1.157-0.289,2.201-0.113,2.893,0.579c1.157,0.869,1.446,2.314,0.868,4.341c-0.579,2.314-1.735,4.34-3.472,5.787
		c-0.868,0.868-2.025,1.447-2.894,1.447c-0.579,0-0.868-0.289-1.158-0.579C92.035,40.771,91.938,40.578,91.842,40.385L91.842,40.385
		z M96.762,32.861c-0.333-0.211-0.938-0.045-1.447,0.579c-1.157,1.157-2.025,2.894-2.894,5.498c0,0.096,0,0.192,0,0.289
		c0.096,0.386,0.193,0.772,0.289,1.158c0.097-0.096,0.193-0.193,0.289-0.29c1.158-0.578,2.026-1.736,2.895-3.183
		C96.472,35.754,96.762,34.308,96.762,32.861L96.762,32.861z M75.348,22.155c1.447,2.604,2.604,4.919,2.894,6.945
		c0.868,4.34,1.158,8.97,1.158,13.6c0,2.219,0,4.438,0,6.656c0.097,0.868,0.193,1.736,0.29,2.604
		c0.096,0.29,0.192,0.579,0.289,0.868c0.097,0,0.193,0,0.29,0c2.411-0.868,4.823-1.736,7.234-2.604
		c0.096,0.193,0.193,0.386,0.289,0.579c-1.254,1.158-2.507,2.315-3.762,3.472c-1.447,1.447-3.183,2.025-4.63,2.314
		c-0.481-0.096-0.964-0.192-1.447-0.289c-1.157-0.868-2.025-2.315-2.894-4.34c-0.289-1.833-0.578-3.665-0.868-5.498
		c0.096-3.762,0.193-7.523,0.289-11.286c0.194-3.183,0.387-6.366,0.579-9.549C75.156,24.47,75.252,23.313,75.348,22.155
		L75.348,22.155z M31.075,95.365c-0.116,0.118-0.806,0.74-0.929,0.854c-0.604,0.566-0.851,1.342-1.097,2.329
		c0.097,0.097,0.193,0.191,0.29,0.289c0.868-0.289,1.447-0.579,1.736-1.157C31.364,96.812,31.364,96.233,31.075,95.365
		L31.075,95.365z M29.049,99.416c-0.29,1.446,0,2.024,0.868,2.313c0.579-0.19,1.158-0.385,1.736-0.578
		c0.675-0.387,1.351-0.771,2.025-1.157c0.096,0.098,0.192,0.192,0.289,0.291c-0.289,0.385-0.578,0.771-0.868,1.155
		c-1.157,1.447-2.314,2.025-3.472,1.736c-1.158-0.289-2.025-1.156-2.314-2.604c-0.29-1.158-0.29-2.315,0-3.473
		c0.289-1.448,1.157-2.315,2.025-2.895c1.447-0.868,2.315-0.868,3.183,0c0.578,0.868,0.525,2.001,0,3.184
		c-0.632,1.424-1.736,2.352-3.183,2.063C29.242,99.453,29.146,99.416,29.049,99.416L29.049,99.416z M20.368,97.681
		c-0.868,0.289-1.447,1.157-1.736,2.604c-0.193,1.155-0.386,2.313-0.579,3.473c0,0.191,0,0.386,0,0.578
		c0.096,0.097,0.192,0.19,0.289,0.289c0.097,0,0.193,0,0.29,0c0.597-0.235,1.033-0.953,1.446-1.735
		c0.654-1.447,1.252-2.896,1.447-4.341c0-0.192,0-0.387,0-0.579C21.14,97.873,20.754,97.776,20.368,97.681L20.368,97.681z
		 M21.814,91.024c0-0.868,0.29-1.157,0.869-1.157s0.868,0.289,0.868,0.868c0.29,1.736,0.579,3.472,0.579,4.918
		c-0.096,0.965-0.193,1.929-0.289,2.895c0.096,0.578,0.193,1.156,0.289,1.736c0.29,1.156,0.579,2.314,0.868,3.473
		c-0.097,0-0.193,0-0.289,0c-0.386-0.967-0.772-1.93-1.158-2.895c-0.193,0.479-0.385,0.965-0.578,1.447
		c-0.599,1.174-1.44,2.188-2.315,3.184c-1.158,1.445-2.315,1.445-3.473,0.578c-0.289-0.289-0.579-0.578-0.868-1.447
		c-0.289-1.447,0.289-3.184,1.157-4.92c0.868-2.314,2.026-3.183,3.473-2.604c0.193,0.097,0.386,0.192,0.579,0.289
		c0.097-0.579,0.193-1.159,0.289-1.737C21.814,94.11,21.814,92.567,21.814,91.024L21.814,91.024z M54.803,64.692
		c4.148-1.157,8.296-2.314,12.443-3.473c0.096,0.193,0.193,0.386,0.289,0.579c-4.629,4.341-8.102,6.945-10.417,8.103
		c-2.315,1.158-4.34,2.025-6.366,2.604c0.868,5.787,1.736,11.575,2.604,17.362c0.29,4.147,0.579,8.295,0.868,12.442
		c0,4.629-0.29,8.681-0.868,12.152c-0.771,2.123-1.543,4.244-2.315,6.367c-0.192-0.098-0.385-0.193-0.579-0.289
		c-0.965-4.438-1.929-8.875-2.894-13.313c-0.868-8.295-1.736-16.59-2.604-24.886c0-3.762,0.289-6.945,0.579-8.97
		c-0.386,0.096-0.771,0.193-1.158,0.289c-7.234-0.385-14.468-0.771-21.703-1.157c6.752-1.929,13.504-3.858,20.256-5.788
		L54.803,64.692L54.803,64.692z M44.386,106.36c-4.341,2.025-7.523,4.052-10.127,6.365c-3.473,3.185-5.499,7.234-6.077,12.443
		c-0.096,0.867-0.193,1.736-0.29,2.604c2.412-0.289,4.823-0.578,7.234-0.866c2.604-0.097,5.209-0.193,7.813-0.289
		c0,0.385,0,0.771,0,1.155c-2.508,1.642-5.016,3.281-7.524,4.92c-2.893,2.025-5.498,3.185-7.813,4.054
		c0.096,0.771,0.193,1.541,0.289,2.313c0.29,4.918,1.736,12.152,3.762,21.123c0.868,3.375,1.736,6.752,2.604,10.129
		c-0.193,0.097-0.386,0.191-0.579,0.289c-4.919-6.076-8.681-13.021-11.286-21.125c-1.157-3.182-2.025-6.365-2.604-9.549
		c-0.096-0.482-0.192-0.965-0.289-1.447c-3.665,0.092-7.33,0.185-10.996,0.275c0-0.121,0-0.24,0-0.361
		c1.736-1.129,3.473-2.258,5.209-3.385c1.929-1.256,3.858-2.51,5.787-3.764c0-2.604,0.289-5.209,1.158-7.813
		c2.025-6.945,5.498-11.863,10.706-14.759C35.994,106.072,40.335,105.203,44.386,106.36L44.386,106.36z"/>
</g>
</svg>
